REM MD5 abad19f7e8be85ec8ffece986eab5605
FILE "PlayStation Demo Disc - Spring 2000 (USA, Canada) (SCUS-94595).bin" BINARY
  TRACK 01 MODE2/2352
    INDEX 01 00:00:00
  TRACK 02 AUDIO
    INDEX 00 48:42:29
    INDEX 01 48:44:29
  TRACK 03 AUDIO
    INDEX 00 52:01:29
    INDEX 01 52:03:29
REM LEADOUT 52:09:25
